{"title":"A$AP Rocky - Angels [Music Video] 1080p [Sbyky]","uid":9775315,"size":97906601,"categoryP":"video","categoryS":"music_videos","magnet":"?xt=urn:btih:afe0e2e22f1b19131e334a5c83f3781bdb87a3fc&amp;dn=A%24AP+Rocky+-+Angels+%5BMusic+Video%5D+1080p+%5BSbyky%5D&amp;tr=udp%3A%2F%2Ftracker.openbittorrent.com%3A80&amp;tr=udp%3A%2F%2Fopen.demonii.com%3A1337&amp;tr=udp%3A%2F%2Ftracker.coppersurfer.tk%3A6969&amp;tr=udp%3A%2F%2Fexodus.desync.com%3A6969","seeders":1,"leechers":0,"uploader":"Sbyky","files":1,"time":1395022651,"description":"\n\nGeneral\nComplete name                            : A$AP Rocky - Angels [Music Video] 1080p [Sbyky].MP4\nFormat                                   : MPEG-4\nFormat profile                           : Base Media\nCodec ID                                 : isom\nFile size                                : 93.4 MiB\nDuration                                 : 4mn 30s\nOverall bit rate mode                    : Variable\nOverall bit rate                         : 2 897 Kbps\nEncoded date                             : UTC 2014-01-07 03:27:55\nTagged date                              : UTC 2014-01-07 03:27:55\n\nVideo\nID                                       : 1\nFormat                                   : AVC\nFormat/Info                              : Advanced Video Codec\nFormat profile                           : &lt;a class=&quot;__cf_email__&quot; href=&quot;/cdn-cgi/l/email-protection&quot; data-cfemail=&quot;f5bd9c929db5b9c1dbc5&quot;&gt;[email&amp;#160;protected]&lt;/a&gt;&lt;script cf-hash='f9e31' type=&quot;text/javascript&quot;&gt;\n/* &lt;![CDATA[ */!function(){try{var t=&quot;currentScript&quot;in document?document.currentScript:function(){for(var t=document.getElementsByTagName(&quot;script&quot;),e=t.length;e--;)if(t[e].getAttribute(&quot;cf-hash&quot;))return t[e]}();if(t&amp;&amp;t.previousSibling){var e,r,n,i,c=t.previousSibling,a=c.getAttribute(&quot;data-cfemail&quot;);if(a){for(e=&quot;&quot;,r=parseInt(a.substr(0,2),16),n=2;a.length-n;n+=2)i=parseInt(a.substr(n,2),16)^r,e+=String.fromCharCode(i);e=document.createTextNode(e),c.parentNode.replaceChild(e,c)}}}catch(u){}}();/* ]]&gt; */&lt;/script&gt;\nFormat settings, CABAC                   : Yes\nFormat settings, ReFrames                : 3 frames\nCodec ID                                 : avc1\nCodec ID/Info                            : Advanced Video Coding\nDuration                                 : 4mn 30s\nBit rate                                 : 2 770 Kbps\nWidth                                    : 1 920 pixels\nHeight                                   : 1 080 pixels\nDisplay aspect ratio                     : 16:9\nFrame rate mode                          : Constant\nFrame rate                               : 25.000 fps\nColor space                              : YUV\nChroma subsampling                       : 4:2:0\nBit depth                                : 8 bits\nScan type                                : Progressive\nBits/(Pixel*Frame)                       : 0.053\nStream size                              : 89.2 MiB (96%)\nEncoded date                             : UTC 2014-01-07 03:27:55\nTagged date                              : UTC 2014-01-07 03:27:55\n\nAudio\nID                                       : 2\nFormat                                   : AAC\nFormat/Info                              : Advanced Audio Codec\nFormat profile                           : LC\nCodec ID                                 : 40\nDuration                                 : 4mn 30s\nBit rate mode                            : Variable\nBit rate                                 : 126 Kbps\nChannel(s)                               : 2 channels\nChannel positions                        : Front: L R\nSampling rate                            : 44.1 KHz\nCompression mode                         : Lossy\nStream size                              : 4.05 MiB (4%)\nEncoded date                             : UTC 2014-01-07 03:14:52\nTagged date                              : UTC 2014-01-07 03:14:52\n\nShared By Sbyky\n","torrent":{"xt":"urn:btih:afe0e2e22f1b19131e334a5c83f3781bdb87a3fc","amp;dn":"A%24AP+Rocky+-+Angels+%5BMusic+Video%5D+1080p+%5BSbyky%5D","amp;tr":["udp%3A%2F%2Ftracker.openbittorrent.com%3A80","udp%3A%2F%2Fopen.demonii.com%3A1337","udp%3A%2F%2Ftracker.coppersurfer.tk%3A6969","udp%3A%2F%2Fexodus.desync.com%3A6969"],"infoHash":"afe0e2e22f1b19131e334a5c83f3781bdb87a3fc","infoHashBuffer":{"type":"Buffer","data":[175,224,226,226,47,27,25,19,30,51,74,92,131,243,120,27,219,135,163,252]},"announce":[],"urlList":[]}}